<svg xmlns="http://www.w3.org/2000/svg" version="1.1" xmlns:xlink="http://www.w3.org/1999/xlink" xmlns:svgjs="http://svgjs.dev/svgjs" width="1000" height="1000" viewBox="0 0 1000 1000"><rect width="1000" height="1000" fill="#ffffff"></rect><g transform="matrix(0.7,0,0,0.7,149.57575757575756,282.1265587044535)"><svg viewBox="0 0 396 247" data-background-color="#ef86c1" preserveAspectRatio="xMidYMid meet" height="623" width="1000" xmlns="http://www.w3.org/2000/svg" xmlns:xlink="http://www.w3.org/1999/xlink"><g id="tight-bounds" transform="matrix(1,0,0,1,0.2400000000000091,-0.09999999999999432)"><svg viewBox="0 0 395.52 247.2" height="247.2" width="395.52"><g><svg></svg></g><g><svg viewBox="0 0 395.52 247.2" height="247.2" width="395.52"><g transform="matrix(1,0,0,1,145.708308033241,47.215199999999996)"><svg viewBox="0 0 104.103383933518 152.7696" height="152.7696" width="104.103383933518"><g><svg viewBox="0 0 104.103383933518 152.7696" height="152.7696" width="104.103383933518"><g><svg viewBox="0 0 104.103383933518 152.7696" height="152.7696" width="104.103383933518"><g><svg viewBox="0 0 104.103383933518 152.7696" height="152.7696" width="104.103383933518"><g><svg viewBox="0 0 104.103383933518 152.7696" height="152.7696" width="104.103383933518"><g><svg viewBox="0 0 104.103383933518 152.7696" height="152.7696" width="104.103383933518"><g transform="matrix(1,0,0,1,0,0)"><svg width="104.103383933518" viewBox="1.2999999523162842 -35.5 24.600000381469727 36.099998474121094" height="152.7696" data-palette-color="#0cf1f1"><path d="M13.6 0.6L13.6 0.6Q5.75 0.6 1.3-4.9L1.3-4.9 5.9-9.5Q8.9-5.65 13.75-5.65L13.75-5.65Q18.75-5.65 18.75-10.05L18.75-10.05Q18.75-11.85 17.85-12.85 16.95-13.85 15.05-14.25L15.05-14.25 11.85-14.85Q7-15.75 4.73-18.23 2.45-20.7 2.45-25.1L2.45-25.1Q2.45-30.2 5.45-32.85 8.45-35.5 14.25-35.5L14.25-35.5Q21.65-35.5 25.5-30.7L25.5-30.7 20.9-26.1Q19.6-27.7 17.98-28.48 16.35-29.25 14.15-29.25L14.15-29.25Q11.75-29.25 10.68-28.35 9.6-27.45 9.6-25.45L9.6-25.45Q9.6-23.7 10.43-22.8 11.25-21.9 13.1-21.5L13.1-21.5 16.3-20.85Q18.85-20.3 20.68-19.53 22.5-18.75 23.68-17.55 24.85-16.35 25.38-14.7 25.9-13.05 25.9-10.85L25.9-10.85Q25.9-5.25 22.75-2.33 19.6 0.6 13.6 0.6Z" opacity="1" transform="matrix(1,0,0,1,0,0)" fill="#000000" class="undefined-text-0" data-fill-palette-color="primary" id="text-0"></path></svg></g></svg></g></svg></g></svg></g></svg></g></svg></g></svg></g><path d="M328.01 41.215L328.01 0 80.81 0 80.81 247.2 328.01 247.2 328.01 205.985 314.233 205.985 314.233 233.423 94.587 233.423 94.587 13.777 314.233 13.777 314.233 41.215Z" fill="#000000" stroke="transparent" data-fill-palette-color="primary"></path></svg></g><defs></defs></svg><rect width="395.52" height="247.2" fill="none" stroke="none" visibility="hidden"></rect></g></svg></g></svg>